{
    "accessors" : [
        {
            "bufferView" : 0,
            "componentType" : 5121,
            "count" : 276,
            "max" : [
                159
            ],
            "min" : [
                0
            ],
            "type" : "SCALAR"
        },
        {
            "bufferView" : 1,
            "componentType" : 5126,
            "count" : 160,
            "max" : [
                0.0528000108897686,
                0.4345719814300537,
                0.05279998853802681
            ],
            "min" : [
                -0.0528000183403492,
                -0.5249999761581421,
                -0.05279998853802681
            ],
            "type" : "VEC3"
        },
        {
            "bufferView" : 2,
            "componentType" : 5126,
            "count" : 160,
            "max" : [
                0.9807852506637573,
                1.0,
                0.9807853102684021
            ],
            "min" : [
                -0.9807853102684021,
                -1.0,
                -0.9807853698730469
            ],
            "type" : "VEC3"
        },
        {
            "bufferView" : 3,
            "componentType" : 5121,
            "count" : 276,
            "max" : [
                159
            ],
            "min" : [
                0
            ],
            "type" : "SCALAR"
        },
        {
            "bufferView" : 4,
            "componentType" : 5126,
            "count" : 160,
            "max" : [
                0.0528000108897686,
                0.4345719814300537,
                0.05279998853802681
            ],
            "min" : [
                -0.0528000183403492,
                -0.5249999761581421,
                -0.05279998853802681
            ],
            "type" : "VEC3"
        },
        {
            "bufferView" : 5,
            "componentType" : 5126,
            "count" : 160,
            "max" : [
                0.9807852506637573,
                1.0,
                0.9807853102684021
            ],
            "min" : [
                -0.9807853102684021,
                -1.0,
                -0.9807853698730469
            ],
            "type" : "VEC3"
        },
        {
            "bufferView" : 6,
            "componentType" : 5121,
            "count" : 276,
            "max" : [
                159
            ],
            "min" : [
                0
            ],
            "type" : "SCALAR"
        },
        {
            "bufferView" : 7,
            "componentType" : 5126,
            "count" : 160,
            "max" : [
                0.0528000108897686,
                0.4345719814300537,
                0.05279998853802681
            ],
            "min" : [
                -0.0528000183403492,
                -0.5249999761581421,
                -0.05279998853802681
            ],
            "type" : "VEC3"
        },
        {
            "bufferView" : 8,
            "componentType" : 5126,
            "count" : 160,
            "max" : [
                0.9807852506637573,
                1.0,
                0.9807853102684021
            ],
            "min" : [
                -0.9807853102684021,
                -1.0,
                -0.9807853698730469
            ],
            "type" : "VEC3"
        },
        {
            "bufferView" : 9,
            "componentType" : 5121,
            "count" : 420,
            "max" : [
                239
            ],
            "min" : [
                0
            ],
            "type" : "SCALAR"
        },
        {
            "bufferView" : 10,
            "componentType" : 5126,
            "count" : 240,
            "max" : [
                0.3231031596660614,
                0.8404884934425354,
                0.19234450161457062
            ],
            "min" : [
                -0.0742134302854538,
                -0.949816107749939,
                -0.33096951246261597
            ],
            "type" : "VEC3"
        },
        {
            "bufferView" : 11,
            "componentType" : 5126,
            "count" : 240,
            "max" : [
                0.9779347777366638,
                0.9565073847770691,
                0.980550229549408
            ],
            "min" : [
                -0.9779346585273743,
                -0.9999999403953552,
                -0.980550229549408
            ],
            "type" : "VEC3"
        },
        {
            "bufferView" : 12,
            "componentType" : 5121,
            "count" : 276,
            "max" : [
                159
            ],
            "min" : [
                0
            ],
            "type" : "SCALAR"
        },
        {
            "bufferView" : 13,
            "componentType" : 5126,
            "count" : 160,
            "max" : [
                0.0528000108897686,
                0.4345719814300537,
                0.05279998853802681
            ],
            "min" : [
                -0.0528000183403492,
                -0.5249999761581421,
                -0.05279998853802681
            ],
            "type" : "VEC3"
        },
        {
            "bufferView" : 14,
            "componentType" : 5126,
            "count" : 160,
            "max" : [
                0.9807852506637573,
                1.0,
                0.9807853102684021
            ],
            "min" : [
                -0.9807853102684021,
                -1.0,
                -0.9807853698730469
            ],
            "type" : "VEC3"
        },
        {
            "bufferView" : 15,
            "componentType" : 5123,
            "count" : 1914,
            "max" : [
                832
            ],
            "min" : [
                0
            ],
            "type" : "SCALAR"
        },
        {
            "bufferView" : 16,
            "componentType" : 5126,
            "count" : 833,
            "max" : [
                3.2940568923950195,
                -0.3176432251930237,
                1.8910331726074219
            ],
            "min" : [
                -1.0184448957443237,
                -1.001661777496338,
                -2.890949249267578
            ],
            "type" : "VEC3"
        },
        {
            "bufferView" : 17,
            "componentType" : 5126,
            "count" : 833,
            "max" : [
                1.0,
                1.0,
                1.0
            ],
            "min" : [
                -1.0,
                -1.0,
                -1.0
            ],
            "type" : "VEC3"
        },
        {
            "bufferView" : 18,
            "componentType" : 5123,
            "count" : 2538,
            "max" : [
                1665
            ],
            "min" : [
                0
            ],
            "type" : "SCALAR"
        },
        {
            "bufferView" : 19,
            "componentType" : 5126,
            "count" : 1666,
            "max" : [
                3.016213893890381,
                6.984270095825195,
                15.170443534851074
            ],
            "min" : [
                -11.520546913146973,
                -1.6848124265670776,
                -8.15043830871582
            ],
            "type" : "VEC3"
        },
        {
            "bufferView" : 20,
            "componentType" : 5126,
            "count" : 1666,
            "max" : [
                1.0,
                1.0,
                1.0
            ],
            "min" : [
                -1.0,
                -1.0,
                -1.0
            ],
            "type" : "VEC3"
        },
        {
            "bufferView" : 21,
            "componentType" : 5121,
            "count" : 276,
            "max" : [
                159
            ],
            "min" : [
                0
            ],
            "type" : "SCALAR"
        },
        {
            "bufferView" : 22,
            "componentType" : 5126,
            "count" : 160,
            "max" : [
                0.0528000108897686,
                0.4345719814300537,
                0.05279998853802681
            ],
            "min" : [
                -0.0528000183403492,
                -0.5249999761581421,
                -0.05279998853802681
            ],
            "type" : "VEC3"
        },
        {
            "bufferView" : 23,
            "componentType" : 5126,
            "count" : 160,
            "max" : [
                0.9807852506637573,
                1.0,
                0.9807853102684021
            ],
            "min" : [
                -0.9807853102684021,
                -1.0,
                -0.9807853698730469
            ],
            "type" : "VEC3"
        },
        {
            "bufferView" : 24,
            "componentType" : 5123,
            "count" : 1236,
            "max" : [
                667
            ],
            "min" : [
                0
            ],
            "type" : "SCALAR"
        },
        {
            "bufferView" : 25,
            "componentType" : 5126,
            "count" : 668,
            "max" : [
                5.724712371826172,
                4.911623477935791,
                0.1999504566192627
            ],
            "min" : [
                -0.9953727722167969,
                0.8300102949142456,
                -1.0
            ],
            "type" : "VEC3"
        },
        {
            "bufferView" : 26,
            "componentType" : 5126,
            "count" : 668,
            "max" : [
                1.0,
                1.0,
                1.0
            ],
            "min" : [
                -1.0,
                -1.0,
                -1.0
            ],
            "type" : "VEC3"
        },
        {
            "bufferView" : 27,
            "componentType" : 5123,
            "count" : 1236,
            "max" : [
                667
            ],
            "min" : [
                0
            ],
            "type" : "SCALAR"
        },
        {
            "bufferView" : 28,
            "componentType" : 5126,
            "count" : 668,
            "max" : [
                5.724712371826172,
                4.911623477935791,
                0.1999504566192627
            ],
            "min" : [
                -0.9953727722167969,
                0.8300102949142456,
                -1.0
            ],
            "type" : "VEC3"
        },
        {
            "bufferView" : 29,
            "componentType" : 5126,
            "count" : 668,
            "max" : [
                1.0,
                1.0,
                1.0
            ],
            "min" : [
                -1.0,
                -1.0,
                -1.0
            ],
            "type" : "VEC3"
        }
    ],
    "asset" : {
        "generator" : "Khronos Blender glTF 2.0 exporter",
        "version" : "2.0"
    },
    "bufferViews" : [
        {
            "buffer" : 0,
            "byteLength" : 276,
            "byteOffset" : 0,
            "target" : 34963
        },
        {
            "buffer" : 0,
            "byteLength" : 1920,
            "byteOffset" : 276,
            "target" : 34962
        },
        {
            "buffer" : 0,
            "byteLength" : 1920,
            "byteOffset" : 2196,
            "target" : 34962
        },
        {
            "buffer" : 0,
            "byteLength" : 276,
            "byteOffset" : 4116,
            "target" : 34963
        },
        {
            "buffer" : 0,
            "byteLength" : 1920,
            "byteOffset" : 4392,
            "target" : 34962
        },
        {
            "buffer" : 0,
            "byteLength" : 1920,
            "byteOffset" : 6312,
            "target" : 34962
        },
        {
            "buffer" : 0,
            "byteLength" : 276,
            "byteOffset" : 8232,
            "target" : 34963
        },
        {
            "buffer" : 0,
            "byteLength" : 1920,
            "byteOffset" : 8508,
            "target" : 34962
        },
        {
            "buffer" : 0,
            "byteLength" : 1920,
            "byteOffset" : 10428,
            "target" : 34962
        },
        {
            "buffer" : 0,
            "byteLength" : 420,
            "byteOffset" : 12348,
            "target" : 34963
        },
        {
            "buffer" : 0,
            "byteLength" : 2880,
            "byteOffset" : 12768,
            "target" : 34962
        },
        {
            "buffer" : 0,
            "byteLength" : 2880,
            "byteOffset" : 15648,
            "target" : 34962
        },
        {
            "buffer" : 0,
            "byteLength" : 276,
            "byteOffset" : 18528,
            "target" : 34963
        },
        {
            "buffer" : 0,
            "byteLength" : 1920,
            "byteOffset" : 18804,
            "target" : 34962
        },
        {
            "buffer" : 0,
            "byteLength" : 1920,
            "byteOffset" : 20724,
            "target" : 34962
        },
        {
            "buffer" : 0,
            "byteLength" : 3828,
            "byteOffset" : 22644,
            "target" : 34963
        },
        {
            "buffer" : 0,
            "byteLength" : 9996,
            "byteOffset" : 26472,
            "target" : 34962
        },
        {
            "buffer" : 0,
            "byteLength" : 9996,
            "byteOffset" : 36468,
            "target" : 34962
        },
        {
            "buffer" : 0,
            "byteLength" : 5076,
            "byteOffset" : 46464,
            "target" : 34963
        },
        {
            "buffer" : 0,
            "byteLength" : 19992,
            "byteOffset" : 51540,
            "target" : 34962
        },
        {
            "buffer" : 0,
            "byteLength" : 19992,
            "byteOffset" : 71532,
            "target" : 34962
        },
        {
            "buffer" : 0,
            "byteLength" : 276,
            "byteOffset" : 91524,
            "target" : 34963
        },
        {
            "buffer" : 0,
            "byteLength" : 1920,
            "byteOffset" : 91800,
            "target" : 34962
        },
        {
            "buffer" : 0,
            "byteLength" : 1920,
            "byteOffset" : 93720,
            "target" : 34962
        },
        {
            "buffer" : 0,
            "byteLength" : 2472,
            "byteOffset" : 95640,
            "target" : 34963
        },
        {
            "buffer" : 0,
            "byteLength" : 8016,
            "byteOffset" : 98112,
            "target" : 34962
        },
        {
            "buffer" : 0,
            "byteLength" : 8016,
            "byteOffset" : 106128,
            "target" : 34962
        },
        {
            "buffer" : 0,
            "byteLength" : 2472,
            "byteOffset" : 114144,
            "target" : 34963
        },
        {
            "buffer" : 0,
            "byteLength" : 8016,
            "byteOffset" : 116616,
            "target" : 34962
        },
        {
            "buffer" : 0,
            "byteLength" : 8016,
            "byteOffset" : 124632,
            "target" : 34962
        }
    ],
    "buffers" : [
        {
            "byteLength" : 132648,
            "uri" : "house.bin"
        }
    ],
    "meshes" : [
        {
            "name" : "Cylinder.007",
            "primitives" : [
                {
                    "attributes" : {
                        "NORMAL" : 2,
                        "POSITION" : 1
                    },
                    "indices" : 0
                }
            ]
        },
        {
            "name" : "Cylinder.005",
            "primitives" : [
                {
                    "attributes" : {
                        "NORMAL" : 5,
                        "POSITION" : 4
                    },
                    "indices" : 3
                }
            ]
        },
        {
            "name" : "Cylinder.004",
            "primitives" : [
                {
                    "attributes" : {
                        "NORMAL" : 8,
                        "POSITION" : 7
                    },
                    "indices" : 6
                }
            ]
        },
        {
            "name" : "Cylinder.008",
            "primitives" : [
                {
                    "attributes" : {
                        "NORMAL" : 11,
                        "POSITION" : 10
                    },
                    "indices" : 9
                }
            ]
        },
        {
            "name" : "Cylinder.006",
            "primitives" : [
                {
                    "attributes" : {
                        "NORMAL" : 14,
                        "POSITION" : 13
                    },
                    "indices" : 12
                }
            ]
        },
        {
            "name" : "Cube.001",
            "primitives" : [
                {
                    "attributes" : {
                        "NORMAL" : 17,
                        "POSITION" : 16
                    },
                    "indices" : 15
                }
            ]
        },
        {
            "name" : "Cube",
            "primitives" : [
                {
                    "attributes" : {
                        "NORMAL" : 20,
                        "POSITION" : 19
                    },
                    "indices" : 18
                }
            ]
        },
        {
            "name" : "Cylinder.003",
            "primitives" : [
                {
                    "attributes" : {
                        "NORMAL" : 23,
                        "POSITION" : 22
                    },
                    "indices" : 21
                }
            ]
        },
        {
            "name" : "Cube.002",
            "primitives" : [
                {
                    "attributes" : {
                        "NORMAL" : 26,
                        "POSITION" : 25
                    },
                    "indices" : 24
                }
            ]
        },
        {
            "name" : "Cube.003",
            "primitives" : [
                {
                    "attributes" : {
                        "NORMAL" : 29,
                        "POSITION" : 28
                    },
                    "indices" : 27
                }
            ]
        }
    ],
    "nodes" : [
        {
            "name" : "Camera",
            "rotation" : [
                0.5251849889755249,
                -0.40125390887260437,
                0.2733635902404785,
                0.6988908052444458
            ],
            "scale" : [
                1.0,
                0.9999999403953552,
                1.0
            ],
            "translation" : [
                -27.39437484741211,
                23.0732421875,
                13.523466110229492
            ]
        },
        {
            "name" : "Camera.001",
            "rotation" : [
                0.48409053683280945,
                0.32002630829811096,
                -0.1959892362356186,
                0.790460467338562
            ],
            "scale" : [
                1.0,
                1.0,
                0.9999999403953552
            ],
            "translation" : [
                20.356035232543945,
                22.623249053955078,
                16.788928985595703
            ]
        },
        {
            "mesh" : 5,
            "name" : "Cube",
            "translation" : [
                -3.2286484241485596,
                8.007031440734863,
                -0.8856369853019714
            ]
        },
        {
            "mesh" : 6,
            "name" : "Cube.001",
            "rotation" : [
                -5.4835749324411154e-05,
                1.0,
                -1.4212834685167763e-05,
                0.00010089554416481405
            ],
            "translation" : [
                -0.30594712495803833,
                8.689903259277344,
                -1.230096697807312
            ]
        },
        {
            "mesh" : 8,
            "name" : "Cube.002",
            "translation" : [
                1.742347240447998,
                6.859716892242432,
                -5.390580177307129
            ]
        },
        {
            "mesh" : 9,
            "name" : "Cube.003",
            "translation" : [
                1.733695387840271,
                6.856050968170166,
                3.412928342819214
            ]
        },
        {
            "mesh" : 2,
            "name" : "Cylinder.001",
            "scale" : [
                0.5010433793067932,
                1.0,
                0.5001097321510315
            ],
            "translation" : [
                -3.9030537605285645,
                7.875424861907959,
                0.6625410914421082
            ]
        },
        {
            "mesh" : 7,
            "name" : "Cylinder.002",
            "scale" : [
                0.5010433793067932,
                1.0,
                0.5001097321510315
            ],
            "translation" : [
                -3.6056013107299805,
                8.0431547164917,
                0.3684343993663788
            ]
        },
        {
            "mesh" : 1,
            "name" : "Cylinder.003",
            "scale" : [
                0.5010433793067932,
                1.0,
                0.5001097321510315
            ],
            "translation" : [
                -4.196798801422119,
                7.70144510269165,
                0.9553749561309814
            ]
        },
        {
            "mesh" : 4,
            "name" : "Cylinder.004",
            "scale" : [
                0.5010433793067932,
                1.0,
                0.5001097321510315
            ],
            "translation" : [
                -3.6056013107299805,
                8.0431547164917,
                0.3684343993663788
            ]
        },
        {
            "mesh" : 0,
            "name" : "Cylinder.005",
            "scale" : [
                0.5010433793067932,
                1.0,
                0.5001097321510315
            ],
            "translation" : [
                -3.3175048828125,
                8.21406078338623,
                0.07957403361797333
            ]
        },
        {
            "mesh" : 3,
            "name" : "Cylinder.006",
            "rotation" : [
                -0.16863973438739777,
                0.27115875482559204,
                -0.500469446182251,
                0.8047135472297668
            ],
            "scale" : [
                0.5010433793067932,
                1.0,
                0.5001097321510315
            ],
            "translation" : [
                -3.7017393112182617,
                8.456167221069336,
                0.51482754945755
            ]
        },
        {
            "name" : "Lamp",
            "rotation" : [
                0.16907575726509094,
                0.7558802962303162,
                -0.27217137813568115,
                0.570947527885437
            ],
            "scale" : [
                1.0,
                1.0,
                0.9999999403953552
            ],
            "translation" : [
                -7.4548211097717285,
                12.74981689453125,
                -1.0054539442062378
            ]
        }
    ],
    "scene" : 0,
    "scenes" : [
        {
            "name" : "Scene",
            "nodes" : [
                5,
                4,
                11,
                10,
                9,
                8,
                6,
                3,
                2,
                12,
                0,
                1,
                7
            ]
        }
    ]
}
