{
    "accessors" : [
        {
            "bufferView" : 0,
            "componentType" : 5123,
            "count" : 1416,
            "max" : [
                936
            ],
            "min" : [
                0
            ],
            "type" : "SCALAR"
        },
        {
            "bufferView" : 1,
            "componentType" : 5126,
            "count" : 937,
            "max" : [
                8.359872817993164,
                6.598813056945801,
                1.0992708206176758
            ],
            "min" : [
                -10.155584335327148,
                3.5608696937561035,
                -3.433185577392578
            ],
            "type" : "VEC3"
        },
        {
            "bufferView" : 2,
            "componentType" : 5126,
            "count" : 937,
            "max" : [
                0.08820904791355133,
                1.0,
                0.05022310093045235
            ],
            "min" : [
                -0.6601282954216003,
                0.7507268786430359,
                -0.05837872251868248
            ],
            "type" : "VEC3"
        },
        {
            "bufferView" : 3,
            "componentType" : 5126,
            "count" : 937,
            "max" : [
                1.0,
                0.07240498065948486,
                1.0,
                1.0
            ],
            "min" : [
                -0.46984007954597473,
                -0.08276031166315079,
                -1.0,
                -1.0
            ],
            "type" : "VEC4"
        },
        {
            "bufferView" : 4,
            "componentType" : 5126,
            "count" : 937,
            "max" : [
                0.9411776661872864,
                1.0
            ],
            "min" : [
                0.0,
                0.01131582260131836
            ],
            "type" : "VEC2"
        },
        {
            "bufferView" : 5,
            "componentType" : 5123,
            "count" : 15123,
            "max" : [
                9695
            ],
            "min" : [
                0
            ],
            "type" : "SCALAR"
        },
        {
            "bufferView" : 6,
            "componentType" : 5126,
            "count" : 9696,
            "max" : [
                8.746685028076172,
                5.063887119293213,
                1.2053402662277222
            ],
            "min" : [
                -10.302410125732422,
                0.9665918350219727,
                -3.532274007797241
            ],
            "type" : "VEC3"
        },
        {
            "bufferView" : 7,
            "componentType" : 5126,
            "count" : 9696,
            "max" : [
                0.9951425194740295,
                1.0,
                1.0
            ],
            "min" : [
                -0.9999998807907104,
                -1.0,
                -1.0
            ],
            "type" : "VEC3"
        },
        {
            "bufferView" : 8,
            "componentType" : 5126,
            "count" : 9696,
            "max" : [
                1.0,
                1.0,
                1.0,
                1.0
            ],
            "min" : [
                -1.0,
                -1.0,
                -1.0,
                -1.0
            ],
            "type" : "VEC4"
        },
        {
            "bufferView" : 9,
            "componentType" : 5126,
            "count" : 9696,
            "max" : [
                1.0,
                1.0
            ],
            "min" : [
                0.0,
                0.011238694190979004
            ],
            "type" : "VEC2"
        },
        {
            "bufferView" : 10,
            "componentType" : 5123,
            "count" : 2604,
            "max" : [
                1504
            ],
            "min" : [
                0
            ],
            "type" : "SCALAR"
        },
        {
            "bufferView" : 11,
            "componentType" : 5126,
            "count" : 1505,
            "max" : [
                5.008408069610596,
                6.598813056945801,
                1.168513298034668
            ],
            "min" : [
                2.241494655609131,
                4.8223981857299805,
                -3.486103057861328
            ],
            "type" : "VEC3"
        },
        {
            "bufferView" : 12,
            "componentType" : 5126,
            "count" : 1505,
            "max" : [
                0.9951422214508057,
                1.0,
                1.0
            ],
            "min" : [
                -1.0,
                -1.0,
                -1.0
            ],
            "type" : "VEC3"
        },
        {
            "bufferView" : 13,
            "componentType" : 5126,
            "count" : 1505,
            "max" : [
                1.0,
                1.0,
                0.16207751631736755,
                1.0
            ],
            "min" : [
                -0.9900497198104858,
                -1.0,
                -0.2012433111667633,
                -1.0
            ],
            "type" : "VEC4"
        },
        {
            "bufferView" : 14,
            "componentType" : 5126,
            "count" : 1505,
            "max" : [
                0.93438321352005,
                1.0
            ],
            "min" : [
                0.0,
                0.0
            ],
            "type" : "VEC2"
        }
    ],
    "asset" : {
        "generator" : "Khronos Blender glTF 2.0 exporter",
        "version" : "2.0"
    },
    "bufferViews" : [
        {
            "buffer" : 0,
            "byteLength" : 2832,
            "byteOffset" : 0,
            "target" : 34963
        },
        {
            "buffer" : 0,
            "byteLength" : 11244,
            "byteOffset" : 2832,
            "target" : 34962
        },
        {
            "buffer" : 0,
            "byteLength" : 11244,
            "byteOffset" : 14076,
            "target" : 34962
        },
        {
            "buffer" : 0,
            "byteLength" : 14992,
            "byteOffset" : 25320,
            "target" : 34962
        },
        {
            "buffer" : 0,
            "byteLength" : 7496,
            "byteOffset" : 40312,
            "target" : 34962
        },
        {
            "buffer" : 0,
            "byteLength" : 30246,
            "byteOffset" : 47808,
            "target" : 34963
        },
        {
            "buffer" : 0,
            "byteLength" : 116352,
            "byteOffset" : 78056,
            "target" : 34962
        },
        {
            "buffer" : 0,
            "byteLength" : 116352,
            "byteOffset" : 194408,
            "target" : 34962
        },
        {
            "buffer" : 0,
            "byteLength" : 155136,
            "byteOffset" : 310760,
            "target" : 34962
        },
        {
            "buffer" : 0,
            "byteLength" : 77568,
            "byteOffset" : 465896,
            "target" : 34962
        },
        {
            "buffer" : 0,
            "byteLength" : 5208,
            "byteOffset" : 543464,
            "target" : 34963
        },
        {
            "buffer" : 0,
            "byteLength" : 18060,
            "byteOffset" : 548672,
            "target" : 34962
        },
        {
            "buffer" : 0,
            "byteLength" : 18060,
            "byteOffset" : 566732,
            "target" : 34962
        },
        {
            "buffer" : 0,
            "byteLength" : 24080,
            "byteOffset" : 584792,
            "target" : 34962
        },
        {
            "buffer" : 0,
            "byteLength" : 12040,
            "byteOffset" : 608872,
            "target" : 34962
        }
    ],
    "buffers" : [
        {
            "byteLength" : 620912,
            "uri" : "ship.bin"
        }
    ],
    "meshes" : [
        {
            "name" : "Cube.001",
            "primitives" : [
                {
                    "attributes" : {
                        "NORMAL" : 2,
                        "POSITION" : 1,
                        "TANGENT" : 3,
                        "TEXCOORD_0" : 4
                    },
                    "indices" : 0
                },
                {
                    "attributes" : {
                        "NORMAL" : 7,
                        "POSITION" : 6,
                        "TANGENT" : 8,
                        "TEXCOORD_0" : 9
                    },
                    "indices" : 5
                },
                {
                    "attributes" : {
                        "NORMAL" : 12,
                        "POSITION" : 11,
                        "TANGENT" : 13,
                        "TEXCOORD_0" : 14
                    },
                    "indices" : 10
                }
            ]
        }
    ],
    "nodes" : [
        {
            "name" : "Camera",
            "rotation" : [
                0.5036647319793701,
                0.24841749668121338,
                -0.15390321612358093,
                0.8129727244377136
            ],
            "translation" : [
                12.355155944824219,
                13.327791213989258,
                18.800018310546875
            ]
        },
        {
            "mesh" : 0,
            "name" : "Cube",
            "translation" : [
                0.6794079542160034,
                -0.8092947006225586,
                0.9999570250511169
            ]
        },
        {
            "name" : "Lamp",
            "rotation" : [
                0.16907575726509094,
                0.7558802962303162,
                -0.27217137813568115,
                0.570947527885437
            ],
            "scale" : [
                1.0,
                1.0,
                0.9999999403953552
            ],
            "translation" : [
                4.076245307922363,
                9.216764450073242,
                7.267643928527832
            ]
        },
        {
            "name" : "Lamp.001",
            "rotation" : [
                0.16907575726509094,
                0.7558802962303162,
                -0.27217137813568115,
                0.570947527885437
            ],
            "scale" : [
                1.0,
                1.0,
                0.9999999403953552
            ],
            "translation" : [
                -3.926054000854492,
                11.416955947875977,
                7.962959289550781
            ]
        }
    ],
    "scene" : 0,
    "scenes" : [
        {
            "name" : "Scene",
            "nodes" : [
                3,
                1,
                2,
                0
            ]
        }
    ]
}
